<?xml version="1.0" encoding="UTF-8" standalone="no"?><svg xmlns="http://www.w3.org/2000/svg" xmlns:xlink="http://www.w3.org/1999/xlink" contentStyleType="text/css" height="788px" preserveAspectRatio="none" style="width:541px;height:788px;background:#FFFFFF;" version="1.1" viewBox="0 0 541 788" width="541px" zoomAndPan="magnify"><defs/><g><rect fill="#FFFFFF" height="551.125" style="stroke:#181818;stroke-width:1.0;" width="10" x="231" y="147.5625"/><rect fill="#FFFFFF" height="64.2656" style="stroke:#181818;stroke-width:1.0;" width="10" x="452" y="211.8281"/><rect fill="#FFFFFF" height="64.2656" style="stroke:#181818;stroke-width:1.0;" width="10" x="452" y="411.625"/><rect fill="#FFFFFF" height="64.2656" style="stroke:#181818;stroke-width:1.0;" width="10" x="452" y="582.2891"/><line style="stroke:#181818;stroke-width:0.5;stroke-dasharray:5.0,5.0;" x1="54" x2="54" y1="81.2969" y2="707.6875"/><line style="stroke:#181818;stroke-width:0.5;stroke-dasharray:5.0,5.0;" x1="236" x2="236" y1="81.2969" y2="707.6875"/><line style="stroke:#181818;stroke-width:0.5;stroke-dasharray:5.0,5.0;" x1="457" x2="457" y1="81.2969" y2="707.6875"/><text fill="#000000" font-family="sans-serif" font-size="14" lengthAdjust="spacing" textLength="42" x="30" y="77.9951">管理者</text><ellipse cx="54" cy="13.5" fill="#E2E2F0" rx="8" ry="8" style="stroke:#181818;stroke-width:0.5;"/><path d="M54,21.5 L54,48.5 M41,29.5 L67,29.5 M54,48.5 L41,63.5 M54,48.5 L67,63.5 " fill="none" style="stroke:#181818;stroke-width:0.5;"/><text fill="#000000" font-family="sans-serif" font-size="14" lengthAdjust="spacing" textLength="42" x="30" y="719.6826">管理者</text><ellipse cx="54" cy="731.4844" fill="#E2E2F0" rx="8" ry="8" style="stroke:#181818;stroke-width:0.5;"/><path d="M54,739.4844 L54,766.4844 M41,747.4844 L67,747.4844 M54,766.4844 L41,781.4844 M54,766.4844 L67,781.4844 " fill="none" style="stroke:#181818;stroke-width:0.5;"/><rect fill="#E2E2F0" height="30.2969" rx="2.5" ry="2.5" style="stroke:#181818;stroke-width:0.5;" width="70" x="201" y="50"/><text fill="#000000" font-family="sans-serif" font-size="14" lengthAdjust="spacing" textLength="56" x="208" y="69.9951">ブラウザ</text><rect fill="#E2E2F0" height="30.2969" rx="2.5" ry="2.5" style="stroke:#181818;stroke-width:0.5;" width="70" x="201" y="706.6875"/><text fill="#000000" font-family="sans-serif" font-size="14" lengthAdjust="spacing" textLength="56" x="208" y="726.6826">ブラウザ</text><rect fill="#E2E2F0" height="30.2969" rx="2.5" ry="2.5" style="stroke:#181818;stroke-width:0.5;" width="70" x="422" y="50"/><text fill="#000000" font-family="sans-serif" font-size="14" lengthAdjust="spacing" textLength="56" x="429" y="69.9951">サーバー</text><rect fill="#E2E2F0" height="30.2969" rx="2.5" ry="2.5" style="stroke:#181818;stroke-width:0.5;" width="70" x="422" y="706.6875"/><text fill="#000000" font-family="sans-serif" font-size="14" lengthAdjust="spacing" textLength="56" x="429" y="726.6826">サーバー</text><rect fill="#FFFFFF" height="551.125" style="stroke:#181818;stroke-width:1.0;" width="10" x="231" y="147.5625"/><rect fill="#FFFFFF" height="64.2656" style="stroke:#181818;stroke-width:1.0;" width="10" x="452" y="211.8281"/><rect fill="#FFFFFF" height="64.2656" style="stroke:#181818;stroke-width:1.0;" width="10" x="452" y="411.625"/><rect fill="#FFFFFF" height="64.2656" style="stroke:#181818;stroke-width:1.0;" width="10" x="452" y="582.2891"/><path d="M5,96.2969 L5,121.2969 L104,121.2969 L104,106.2969 L94,96.2969 L5,96.2969 " fill="#FEFFDD" style="stroke:#181818;stroke-width:0.5;"/><path d="M94,96.2969 L94,106.2969 L104,106.2969 L94,96.2969 " fill="#FEFFDD" style="stroke:#181818;stroke-width:0.5;"/><text fill="#000000" font-family="sans-serif" font-size="13" lengthAdjust="spacing" textLength="78" x="11" y="113.3638">ログイン操作</text><polygon fill="#181818" points="219,143.5625,229,147.5625,219,151.5625,223,147.5625" style="stroke:#181818;stroke-width:1.0;"/><line style="stroke:#181818;stroke-width:1.0;" x1="54" x2="225" y1="147.5625" y2="147.5625"/><text fill="#000000" font-family="sans-serif" font-size="13" lengthAdjust="spacing" textLength="91" x="61" y="142.4966">サイトアクセス</text><path d="M186,160.5625 L186,185.5625 L285,185.5625 L285,170.5625 L275,160.5625 L186,160.5625 " fill="#FEFFDD" style="stroke:#181818;stroke-width:0.5;"/><path d="M275,160.5625 L275,170.5625 L285,170.5625 L275,160.5625 " fill="#FEFFDD" style="stroke:#181818;stroke-width:0.5;"/><text fill="#000000" font-family="sans-serif" font-size="13" lengthAdjust="spacing" textLength="78" x="192" y="177.6294">要認証ページ</text><polygon fill="#181818" points="440,207.8281,450,211.8281,440,215.8281,444,211.8281" style="stroke:#181818;stroke-width:1.0;"/><line style="stroke:#181818;stroke-width:1.0;" x1="241" x2="446" y1="211.8281" y2="211.8281"/><text fill="#000000" font-family="sans-serif" font-size="13" lengthAdjust="spacing" textLength="192" x="248" y="206.7622">API実行（jwt_token[expired]）</text><path d="M384,224.8281 L384,249.8281 L529,249.8281 L529,234.8281 L519,224.8281 L384,224.8281 " fill="#FEFFDD" style="stroke:#181818;stroke-width:0.5;"/><path d="M519,224.8281 L519,234.8281 L529,234.8281 L519,224.8281 " fill="#FEFFDD" style="stroke:#181818;stroke-width:0.5;"/><text fill="#000000" font-family="sans-serif" font-size="13" lengthAdjust="spacing" textLength="124" x="390" y="241.895">認証状態チェックAPI</text><polygon fill="#181818" points="252,272.0938,242,276.0938,252,280.0938,248,276.0938" style="stroke:#181818;stroke-width:1.0;"/><line style="stroke:#181818;stroke-width:1.0;" x1="246" x2="456" y1="276.0938" y2="276.0938"/><text fill="#000000" font-family="sans-serif" font-size="13" lengthAdjust="spacing" textLength="52" x="258" y="271.0278">認証失敗</text><line style="stroke:#181818;stroke-width:1.0;" x1="241" x2="283" y1="305.2266" y2="305.2266"/><line style="stroke:#181818;stroke-width:1.0;" x1="283" x2="283" y1="305.2266" y2="318.2266"/><line style="stroke:#181818;stroke-width:1.0;" x1="242" x2="283" y1="318.2266" y2="318.2266"/><polygon fill="#181818" points="252,314.2266,242,318.2266,252,322.2266,248,318.2266" style="stroke:#181818;stroke-width:1.0;"/><text fill="#000000" font-family="sans-serif" font-size="13" lengthAdjust="spacing" textLength="78" x="248" y="300.1606">リダイレクト</text><path d="M186,331.2266 L186,356.2266 L285,356.2266 L285,341.2266 L275,331.2266 L186,331.2266 " fill="#FEFFDD" style="stroke:#181818;stroke-width:0.5;"/><path d="M275,331.2266 L275,341.2266 L285,341.2266 L275,331.2266 " fill="#FEFFDD" style="stroke:#181818;stroke-width:0.5;"/><text fill="#000000" font-family="sans-serif" font-size="13" lengthAdjust="spacing" textLength="78" x="192" y="348.2935">ログイン画面</text><polygon fill="#181818" points="219,378.4922,229,382.4922,219,386.4922,223,382.4922" style="stroke:#181818;stroke-width:1.0;"/><line style="stroke:#181818;stroke-width:1.0;" x1="54" x2="225" y1="382.4922" y2="382.4922"/><text fill="#000000" font-family="sans-serif" font-size="13" lengthAdjust="spacing" textLength="153" x="61" y="377.4263">入力（email/password）</text><polygon fill="#181818" points="440,407.625,450,411.625,440,415.625,444,411.625" style="stroke:#181818;stroke-width:1.0;"/><line style="stroke:#181818;stroke-width:1.0;" x1="241" x2="446" y1="411.625" y2="411.625"/><text fill="#000000" font-family="sans-serif" font-size="13" lengthAdjust="spacing" textLength="173" x="248" y="406.5591">API実行（email/password）</text><path d="M410,424.625 L410,449.625 L503,449.625 L503,434.625 L493,424.625 L410,424.625 " fill="#FEFFDD" style="stroke:#181818;stroke-width:0.5;"/><path d="M493,424.625 L493,434.625 L503,434.625 L493,424.625 " fill="#FEFFDD" style="stroke:#181818;stroke-width:0.5;"/><text fill="#000000" font-family="sans-serif" font-size="13" lengthAdjust="spacing" textLength="72" x="416" y="441.6919">ログインAPI</text><polygon fill="#181818" points="252,471.8906,242,475.8906,252,479.8906,248,475.8906" style="stroke:#181818;stroke-width:1.0;"/><line style="stroke:#181818;stroke-width:1.0;" x1="246" x2="456" y1="475.8906" y2="475.8906"/><text fill="#000000" font-family="sans-serif" font-size="13" lengthAdjust="spacing" textLength="140" x="258" y="470.8247">認証成功（jwt_token）</text><line style="stroke:#181818;stroke-width:1.0;" x1="241" x2="283" y1="505.0234" y2="505.0234"/><line style="stroke:#181818;stroke-width:1.0;" x1="283" x2="283" y1="505.0234" y2="518.0234"/><line style="stroke:#181818;stroke-width:1.0;" x1="242" x2="283" y1="518.0234" y2="518.0234"/><polygon fill="#181818" points="252,514.0234,242,518.0234,252,522.0234,248,518.0234" style="stroke:#181818;stroke-width:1.0;"/><text fill="#000000" font-family="sans-serif" font-size="13" lengthAdjust="spacing" textLength="78" x="248" y="499.9575">リダイレクト</text><path d="M193,531.0234 L193,556.0234 L279,556.0234 L279,541.0234 L269,531.0234 L193,531.0234 " fill="#FEFFDD" style="stroke:#181818;stroke-width:0.5;"/><path d="M269,531.0234 L269,541.0234 L279,541.0234 L269,531.0234 " fill="#FEFFDD" style="stroke:#181818;stroke-width:0.5;"/><text fill="#000000" font-family="sans-serif" font-size="13" lengthAdjust="spacing" textLength="65" x="199" y="548.0903">ホーム画面</text><polygon fill="#181818" points="440,578.2891,450,582.2891,440,586.2891,444,582.2891" style="stroke:#181818;stroke-width:1.0;"/><line style="stroke:#181818;stroke-width:1.0;" x1="241" x2="446" y1="582.2891" y2="582.2891"/><text fill="#000000" font-family="sans-serif" font-size="13" lengthAdjust="spacing" textLength="134" x="248" y="577.2231">API実行（jwt_token）</text><path d="M384,595.2891 L384,620.2891 L529,620.2891 L529,605.2891 L519,595.2891 L384,595.2891 " fill="#FEFFDD" style="stroke:#181818;stroke-width:0.5;"/><path d="M519,595.2891 L519,605.2891 L529,605.2891 L519,595.2891 " fill="#FEFFDD" style="stroke:#181818;stroke-width:0.5;"/><text fill="#000000" font-family="sans-serif" font-size="13" lengthAdjust="spacing" textLength="124" x="390" y="612.356">認証状態チェックAPI</text><polygon fill="#181818" points="252,642.5547,242,646.5547,252,650.5547,248,646.5547" style="stroke:#181818;stroke-width:1.0;"/><line style="stroke:#181818;stroke-width:1.0;" x1="246" x2="456" y1="646.5547" y2="646.5547"/><text fill="#000000" font-family="sans-serif" font-size="13" lengthAdjust="spacing" textLength="52" x="258" y="641.4888">認証成功</text><rect fill="#EEEEEE" height="3" style="stroke:#EEEEEE;stroke-width:1.0;" width="534" x="0" y="675.1211"/><line style="stroke:#000000;stroke-width:1.0;" x1="0" x2="534" y1="675.1211" y2="675.1211"/><line style="stroke:#000000;stroke-width:1.0;" x1="0" x2="534" y1="678.1211" y2="678.1211"/><rect fill="#EEEEEE" height="23.1328" style="stroke:#000000;stroke-width:2.0;" width="103" x="215.5" y="664.5547"/><text fill="#000000" font-family="sans-serif" font-size="13" font-weight="bold" lengthAdjust="spacing" textLength="84" x="221.5" y="680.6216">ログイン成功</text><!--MD5=[663d65e83a8c9f5a455d019842d86e3c]
@startuml
actor 管理者 as U
participant ブラウザ as F
participant サーバー as S

note over U : ログイン操作

U -> F ++ : サイトアクセス
note over F : 要認証ページ
F -> S ++ : API実行（jwt_token[expired]）
note over S : 認証状態チェックAPI
F <- S - - : 認証失敗
F -> F : リダイレクト

note over F : ログイン画面
U -> F : 入力（email/password）
F -> S ++ : API実行（email/password）
note over S : ログインAPI
F <- S - - : 認証成功（jwt_token）
F -> F : リダイレクト

note over F : ホーム画面
F -> S ++ : API実行（jwt_token）
note over S : 認証状態チェックAPI
F <- S - - : 認証成功

== ログイン成功 ==
@enduml

PlantUML version 1.2022.10beta1(Unknown compile time)
(GPL source distribution)
Java Runtime: Java(TM) SE Runtime Environment
JVM: Java HotSpot(TM) 64-Bit Server VM
Default Encoding: UTF-8
Language: en
Country: US
--></g></svg>